<svg xmlns="http://www.w3.org/2000/svg" x="0px" y="0px" width="100" height="100" viewBox="0,0,256,256">
<g fill="#ffffff" fill-rule="nonzero" stroke="none" stroke-width="1" stroke-linecap="butt" stroke-linejoin="miter" stroke-miterlimit="10" stroke-dasharray="" stroke-dashoffset="0" font-family="none" font-weight="none" font-size="none" text-anchor="none" style="mix-blend-mode: normal"><g transform="scale(2.56,2.56)"><path d="M50.22461,13.29688c-0.01499,0.00031 -0.02996,0.00097 -0.04492,0.00195c-0.01846,0.00079 -0.03623,0.00116 -0.05469,0.00195c-0.00196,0.00064 -0.00391,0.0013 -0.00586,0.00195c-18.20517,0.77996 -35.01327,2.40005 -35.46094,2.44336c-0.02533,-0.00227 -0.05074,-0.00357 -0.07617,-0.00391c-0.31768,0.00293 -0.61508,0.15662 -0.80122,0.41407c-0.18615,0.25745 -0.23891,0.58802 -0.14214,0.89062c0,0 10.74294,35.44866 14.45898,71.74805c-0.00915,0.31261 0.12846,0.61151 0.37193,0.80781c0.24346,0.19631 0.56474,0.26742 0.86831,0.19219c0.02235,-0.00574 0.0445,-0.01226 0.06641,-0.01953c0,0 27.8684,-8.60744 55.63086,-9.58203c0.0578,-0.00218 0.11531,-0.00937 0.17188,-0.02148c0.00849,-0.00184 0.01695,-0.0038 0.02539,-0.00586c0.02367,-0.00565 0.04712,-0.01217 0.07031,-0.01953c0.00065,0 0.0013,0 0.00195,0c0.19178,-0.06133 0.36059,-0.17909 0.48437,-0.33789c0.0053,-0.00709 0.01051,-0.01425 0.01563,-0.02148c0.05426,-0.0731 0.09828,-0.15327 0.13086,-0.23828c0.00066,-0.00195 0.00131,-0.0039 0.00195,-0.00586c0.03418,-0.09221 0.05458,-0.18895 0.06055,-0.28711c0,-0.0013 0,-0.0026 0,-0.00391c0.00119,-0.01886 0.00184,-0.03775 0.00195,-0.05664c0.03152,-13.84714 -4.61531,-33.44171 -10.52344,-50.59375c-0.08906,-0.28439 -0.3003,-0.51425 -0.57617,-0.62695c-6.90434,-6.09764 -15.75294,-10.95217 -24.14062,-14.53516c-0.13095,-0.07769 -0.27792,-0.12445 -0.42969,-0.13672c-0.00195,-0.00066 -0.0039,-0.00131 -0.00586,-0.00195c-0.00456,-0.00003 -0.00911,-0.00003 -0.01367,0c-0.02014,-0.00191 -0.04033,-0.00322 -0.06055,-0.00391c-0.00846,-0.00011 -0.01693,-0.00011 -0.02539,0zM49.70508,15.32422c0.06414,0.09299 0.12462,0.18915 0.1875,0.2832c4.87445,10.36535 2.60367,15.18702 3.52734,16.20703c1.61369,1.78402 8.0731,-2.60192 20.36914,-1.94727c5.63147,16.4945 9.97942,35.16652 10.14258,48.36133c-2.74676,0.0459 -25.40571,0.63018 -52.89648,7.45898c-4.84509,-37.17388 -14.02948,-64.88473 -15.10156,-68.04102c1.7763,-0.16963 16.65313,-1.57382 33.77148,-2.32227zM52.87891,16.74219c6.31646,2.89857 12.64358,6.39124 18.05273,10.64844c-4.61789,-0.40448 -9.48997,0.20225 -13.82031,1.13281c-0.98976,-3.98166 -2.22764,-8.08185 -4.23242,-11.78125zM52.29297,39.61719c-0.02282,0.00052 -0.04562,0.00182 -0.06836,0.00391c0,0 -9.19899,0.48772 -18.43359,2.19922c-0.35141,0.06516 -0.64135,0.31288 -0.76056,0.64982c-0.11921,0.33693 -0.04959,0.71187 0.18264,0.98354c0.23223,0.27167 0.59178,0.39878 0.94315,0.33344c9.0674,-1.68051 18.17383,-2.16992 18.17383,-2.16992c0.55228,-0.01025 0.99169,-0.46627 0.98145,-1.01855c-0.01025,-0.55228 -0.46627,-0.99169 -1.01855,-0.98145zM69.50195,47.60156c-0.02345,-0.00017 -0.0469,0.00048 -0.07031,0.00195c-11.1674,0.64675 -22.28857,2.0882 -33.25195,4.30859c-0.5415,0.11003 -0.89128,0.63819 -0.78125,1.17969c0.11003,0.5415 0.63819,0.89128 1.17969,0.78125c10.87061,-2.20161 21.89615,-3.63218 32.96875,-4.27344c0.53548,-0.03382 0.94887,-0.48418 0.93681,-1.02059c-0.01206,-0.53641 -0.44527,-0.96774 -0.98173,-0.97746zM67.20508,58.41406c-0.0228,-0.00013 -0.0456,0.00052 -0.06836,0.00195c-9.58547,0.5671 -19.14223,1.64566 -28.61328,3.22852c-0.35558,0.05553 -0.65391,0.29783 -0.78117,0.63447c-0.12726,0.33664 -0.06384,0.7157 0.16608,0.99257c0.22992,0.27687 0.59087,0.40886 0.94516,0.34561c9.40095,-1.57114 18.88586,-2.64022 28.40039,-3.20313c0.5522,-0.0136 0.98885,-0.47221 0.97537,-1.02441c-0.01348,-0.5522 -0.472,-0.98896 -1.0242,-0.97559zM72.43945,68.83789c-0.02282,0.00052 -0.04562,0.00182 -0.06836,0.00391c-10.47372,0.70814 -20.91404,1.91503 -31.27344,3.61719c-0.35277,0.05787 -0.64787,0.29956 -0.77411,0.63402c-0.12624,0.33446 -0.06443,0.71086 0.16212,0.98739c0.22656,0.27653 0.58345,0.41117 0.9362,0.3532c10.2966,-1.69184 20.6737,-2.8938 31.08398,-3.59766c0.53857,-0.03539 0.95189,-0.49174 0.93397,-1.03117c-0.01793,-0.53943 -0.46064,-0.96732 -1.00037,-0.96688z"></path></g></g>
</svg>