    <svg xmlns="http://www.w3.org/2000/svg" x="0px" y="0px" width="100" height="100" viewBox="0 0 100 100">
    <circle cx="49" cy="50" r="37" fill="#c0e5e4"></circle><circle cx="79" cy="13" r="1" fill="#f1bc19"></circle><circle cx="85" cy="15" r="4" fill="#f1bc19"></circle><circle cx="13" cy="29" r="2" fill="#00a5a5"></circle><circle cx="80" cy="78" r="2" fill="#fbcd59"></circle><circle cx="26" cy="76" r="4" fill="#fbcd59"></circle><circle cx="27" cy="87" r="2" fill="#00a5a5"></circle><circle cx="58.5" cy="80.5" r="2.5" fill="#fff"></circle><circle cx="23.029" cy="68.971" r=".971" fill="#fff"></circle><circle cx="85" cy="31" r="1" fill="#f1bc19"></circle><circle cx="78" cy="68" r="2" fill="#fff"></circle><circle cx="79" cy="34" r="1" fill="#fff"></circle><path fill="#8889b9" d="M66,76H34c-2.761,0-5-2.239-5-5V26c0-2.761,2.239-5,5-5h19.101c1.298,0,2.546,0.505,3.479,1.408 l12.899,12.493C70.451,35.843,71,37.139,71,38.493V71C71,73.761,68.761,76,66,76z"></path><circle cx="41.548" cy="50.471" r="2" fill="#fff"></circle><circle cx="41.548" cy="56.471" r="2" fill="#fff"></circle><circle cx="41.548" cy="62.471" r="2" fill="#fff"></circle><rect width="14" height="2" x="46.548" y="49.471" fill="#fff"></rect><rect width="14" height="2" x="46.548" y="55.471" fill="#fff"></rect><rect width="14" height="2" x="46.548" y="61.471" fill="#fff"></rect><g><path fill="#a2b3cb" d="M68.457,38.064h-7.478c-3.866,0-7-3.134-7-7v-9l15.164,14.272 C69.802,36.956,69.363,38.064,68.457,38.064z"></path></g><g><path fill="#472b29" d="M53.101,22.4c0.94,0,1.829,0.36,2.505,1.014l12.899,12.493c0.696,0.674,1.095,1.617,1.095,2.586 V71c0,1.985-1.615,3.6-3.6,3.6H34c-1.985,0-3.6-1.615-3.6-3.6V26c0-1.985,1.615-3.6,3.6-3.6H53.101 M53.101,21H34 c-2.761,0-5,2.239-5,5v45c0,2.761,2.239,5,5,5h32c2.761,0,5-2.239,5-5V38.493c0-1.354-0.549-2.65-1.521-3.592l-12.9-12.493 C55.646,21.505,54.399,21,53.101,21L53.101,21z"></path></g><g><path fill="#472b29" d="M69.75,38.2H59.375c-3.143,0-5.7-2.558-5.7-5.7V21.875c0-0.387,0.313-0.7,0.7-0.7 s0.7,0.313,0.7,0.7V32.5c0,2.371,1.929,4.3,4.3,4.3H69.75c0.387,0,0.7,0.313,0.7,0.7S70.137,38.2,69.75,38.2z"></path></g><g><path fill="#472b29" d="M64.75,72h-20c-0.276,0-0.5-0.224-0.5-0.5s0.224-0.5,0.5-0.5h20c0.275,0,0.5-0.225,0.5-0.5v-21 c0-0.276,0.224-0.5,0.5-0.5s0.5,0.224,0.5,0.5v21C66.25,71.327,65.577,72,64.75,72z"></path></g><g><path fill="#472b29" d="M65.75,47.5c-0.276,0-0.5-0.224-0.5-0.5v-4c0-0.276,0.224-0.5,0.5-0.5s0.5,0.224,0.5,0.5v4 C66.25,47.276,66.026,47.5,65.75,47.5z"></path></g><g><path fill="#472b29" d="M41.5,52.75c-1.24,0-2.25-1.01-2.25-2.25s1.01-2.25,2.25-2.25s2.25,1.01,2.25,2.25 S42.74,52.75,41.5,52.75z M41.5,48.75c-0.965,0-1.75,0.785-1.75,1.75s0.785,1.75,1.75,1.75s1.75-0.785,1.75-1.75 S42.465,48.75,41.5,48.75z"></path></g><g><path fill="#472b29" d="M41.5,58.75c-1.24,0-2.25-1.01-2.25-2.25s1.01-2.25,2.25-2.25s2.25,1.01,2.25,2.25 S42.74,58.75,41.5,58.75z M41.5,54.75c-0.965,0-1.75,0.785-1.75,1.75s0.785,1.75,1.75,1.75s1.75-0.785,1.75-1.75 S42.465,54.75,41.5,54.75z"></path></g><g><path fill="#472b29" d="M41.5,64.75c-1.24,0-2.25-1.01-2.25-2.25s1.01-2.25,2.25-2.25s2.25,1.01,2.25,2.25 S42.74,64.75,41.5,64.75z M41.5,60.75c-0.965,0-1.75,0.785-1.75,1.75s0.785,1.75,1.75,1.75s1.75-0.785,1.75-1.75 S42.465,60.75,41.5,60.75z"></path></g><g><path fill="#472b29" d="M60.5,51.75h-14c-0.138,0-0.25-0.112-0.25-0.25v-2c0-0.138,0.112-0.25,0.25-0.25h14 c0.138,0,0.25,0.112,0.25,0.25v2C60.75,51.638,60.638,51.75,60.5,51.75z M46.75,51.25h13.5v-1.5h-13.5V51.25z"></path></g><g><path fill="#472b29" d="M60.5,57.75h-14c-0.138,0-0.25-0.112-0.25-0.25v-2c0-0.138,0.112-0.25,0.25-0.25h14 c0.138,0,0.25,0.112,0.25,0.25v2C60.75,57.638,60.638,57.75,60.5,57.75z M46.75,57.25h13.5v-1.5h-13.5V57.25z"></path></g><g><path fill="#472b29" d="M60.5,63.75h-14c-0.138,0-0.25-0.112-0.25-0.25v-2c0-0.138,0.112-0.25,0.25-0.25h14 c0.138,0,0.25,0.112,0.25,0.25v2C60.75,63.638,60.638,63.75,60.5,63.75z M46.75,63.25h13.5v-1.5h-13.5V63.25z"></path></g><g><path fill="#472b29" d="M42,72h-3.5c-0.276,0-0.5-0.224-0.5-0.5s0.224-0.5,0.5-0.5H42c0.276,0,0.5,0.224,0.5,0.5 S42.276,72,42,72z"></path></g>
    </svg>